<?xml version="1.0" encoding="UTF-8"?><svg id="Layer_2" xmlns="http://www.w3.org/2000/svg" viewBox="0 0 122.39 134.42"><defs><style>.cls-1{fill:#104241;}.cls-2{fill:#e8e6e0;}</style></defs><g id="Layer_1-2"><path class="cls-2" d="M122.39,73.22c0,9.16-2.01,17.84-5.62,25.64-.02.04-.04.09-.06.13-.14.31-.29.62-.44.93-.35.71-.71,1.42-1.08,2.12-4.07,7.61-9.7,14.26-16.47,19.52-10.36,8.05-23.38,12.85-37.52,12.85s-27.16-4.8-37.53-12.85c-6.6-5.13-12.12-11.58-16.16-18.95-.1-.19-.21-.38-.31-.57-.63-1.18-1.23-2.39-1.78-3.62-.3-.65-.58-1.31-.85-1.98-2.95-7.16-4.57-15.01-4.57-23.23C0,49.66,13.31,29.21,32.83,18.98c.31-.16.62-.32.94-.48,1.42-.71,2.87-1.37,4.35-1.97,7.12-2.9,14.91-4.5,23.08-4.5,9.76,0,18.98,2.29,27.17,6.35.19.1.39.19.59.3.08.04.16.08.25.13,19.71,10.16,33.19,30.72,33.19,54.43Z"/><path class="cls-1" d="M116.71,99c-.14.31-.29.62-.44.93-.35.71-.71,1.42-1.08,2.12-4.07,7.61-9.7,14.26-16.47,19.52-10.36,8.05-23.38,12.85-37.52,12.85s-27.16-4.8-37.53-12.85c-6.6-5.13-12.12-11.58-16.16-18.95,1.27-5.91,3.49-14.16,9.8-18.53,5.57-3.85,21.02-5.16,27.71-9.53,4.1-2.68,4.53-4.74,4.31-9.51-2.07-.9-3.31-1.19-5.89-1.8l-1.96-.43c-.15-1.44-.08-1.65-.15-3.08-.07-1.43-.1-2.86-.08-4.29.01-.97.05-1.95.13-2.92-.75,1.53-1.23,9.17-1.97,8.95-3.87-1.16-7.98-3.43-7.98-6.21,0-5.18,5.22-21.44,5.31-26.67.06-3.47.06-8,1.39-12.07.46-1.43,1.09-2.8,1.94-4.05,1.49-2.2,3.68-4.02,6.87-5.11.34-.12.68-.26,1.02-.44.34-.17.68-.36,1.03-.57,5.77-3.5,13.04-12.09,30.4-.51,4.97,3.31,7.22,5.69,8.46,8.34.65,1.4,1.02,2.88,1.36,4.61.73,3.76,1.29,8.72,4.24,16.71,4.69,12.71-1.71,16.5-1.01,25.57.17,2.2-7.97,3.82-13.25,4.59-.14.02-.5-2.16-.9-3.78-.05-.22.1,3.7-.04,3.86-.14.15-1.47.26-2.52.34-.09,3.74,1.17,6.4,4.34,8.47,6.69,4.37,22.14,5.67,27.71,9.53,5.1,3.53,7.53,9.59,8.94,14.9Z"/></g></svg>
