<?xml version="1.0" encoding="UTF-8"?><svg id="Layer_2" xmlns="http://www.w3.org/2000/svg" viewBox="0 0 122.39 134.19"><defs><style>.cls-1{fill:#104241;}.cls-2{fill:#e8e6e0;}</style></defs><g id="Layer_1-2"><path class="cls-2" d="M122.39,72.99c0,9.16-2.01,17.84-5.62,25.64-.16.35-.33.71-.5,1.06-4.12,8.5-10.16,15.9-17.55,21.64-10.36,8.05-23.38,12.85-37.52,12.85s-27.16-4.8-37.53-12.85c-7.5-5.83-13.6-13.36-17.73-22.02-.18-.37-.35-.74-.52-1.11-3.48-7.69-5.42-16.22-5.42-25.21C0,49.58,13.14,29.25,32.45,18.95c.13-.07.26-.14.38-.2,8.48-4.44,18.13-6.96,28.36-6.96,9.42,0,18.34,2.13,26.32,5.93.29.14.57.27.85.41,20.17,10.01,34.03,30.81,34.03,54.85Z"/><path class="cls-1" d="M116.27,99.69c-4.12,8.5-10.16,15.9-17.55,21.64-10.36,8.05-23.38,12.85-37.52,12.85s-27.16-4.8-37.53-12.85c-7.5-5.83-13.6-13.36-17.73-22.02,8.2-3.36,16.57-5.12,22.28-7.06-.17-1.33-.03-2.62.63-3.86,5.77-10.89,9.79-13.22,11.79-13.58.95-.18,1.44.09,1.44.09l-.06-1.74-.15-3.99c-2.57-3.46-4.48-7.65-5.51-12.27-1.64-.03-4.77-.93-5.74-7.09,0,0-5.04-14,1.76-14h.02s-1.82-8.4.04-16.87c1.63-7.43,6.13-14.89,17.29-16.77,0,0,19.79-7.94,27.61,6.47,0,0,6.73.86,10.16,9.08,1.46,3.5,2.32,8.33,1.82,15-.06.79-.17,1.58-.31,2.36-.06.35-.12.7-.12.73h0c7.01-.1,1.78,14.01,1.78,14.01-.96,6.16-4.1,7.06-5.74,7.09-1.03,4.63-2.93,8.82-5.51,12.27l-.15,3.99-.06,1.74s.49-.27,1.44-.09c1.99.36,6.02,2.69,11.79,13.58.66,1.24.8,2.53.63,3.86,5.93,2.02,14.7,3.83,23.19,7.44Z"/></g></svg>
